<svg xmlns="http://www.w3.org/2000/svg" viewBox="26 26 147.2 127.60000000000001" style="max-height: 500px" width="147.2" height="127.60000000000001">
  
  <circle fill="#574B90" r="40" cy="90" cx="100"/>
  
  
  <circle fill="white" r="12" cy="80" cx="85"/> 
  <circle fill="white" r="12" cy="80" cx="115"/> 
  <circle fill="#2C2C54" r="8" cy="80" cx="85"/> 
  <circle fill="#2C2C54" r="8" cy="80" cx="115"/> 
  <circle fill="white" r="3" cy="77" cx="82"/> 
  <circle fill="white" r="3" cy="77" cx="112"/> 
  
  
  <circle opacity="0.5" fill="#FF9999" r="8" cy="95" cx="75"/>
  <circle opacity="0.5" fill="#FF9999" r="8" cy="95" cx="125"/>
  
  
  <path fill="none" stroke-width="3" stroke="#2C2C54" d="M90 95 Q100 105 110 95"/>
  
  
  
  <path fill="none" stroke-width="6" stroke="#574B90" d="M65 85 Q45 85 35 70"/>
  <path fill="none" stroke-width="6" stroke="#574B90" d="M65 90 Q40 90 30 90"/>
  <path fill="none" stroke-width="6" stroke="#574B90" d="M65 95 Q45 105 35 110"/>
  
  
  <path fill="none" stroke-width="6" stroke="#574B90" d="M135 85 Q155 85 165 70"/>
  <path fill="none" stroke-width="6" stroke="#574B90" d="M135 90 Q160 90 170 90"/>
  <path fill="none" stroke-width="6" stroke="#574B90" d="M135 95 Q155 105 165 110"/>
</svg>